<?xml version="1.0" encoding="UTF-8"?>
<svg width="491px" height="99px" viewBox="0 0 491 99" version="1.1" xmlns="http://www.w3.org/2000/svg" xmlns:xlink="http://www.w3.org/1999/xlink">
    <!-- Generator: Sketch 52.6 (67491) - http://www.bohemiancoding.com/sketch -->
    <title>header</title>
    <desc>Created with Sketch.</desc>
    <g id="Page-1" stroke="none" stroke-width="1" fill="none" fill-rule="evenodd">
        <g id="header">
            <g id="logo">
                <path d="M3.27690972,16.7412637 C1.09806732,17.225847 3.24737287,19.9029743 9.72482639,24.7726457 C13.3877988,27.5264241 19.3840462,29.9297401 23.5668403,32.3955342 C25.7094345,33.6586125 28.3856498,35.5370436 31.5954861,38.0308277 L34.1218436,36.3153584 L35.1345486,32.3955342 C45.8258097,46.4081414 53.1154509,56.8954197 57.0034722,63.8573691 C60.8914935,70.8193184 63.6035884,78.241299 65.1397569,86.1233108 C69.4239005,80.87822 72.6278935,75.1456662 74.7517361,68.9256493 C76.4176957,64.046617 80.9334376,55.6209375 86.4296875,52.2113862 C87.4367706,51.5866509 88.7805206,52.1321798 90.4609375,53.847973 C91.8140043,50.606118 95.2286455,48.3052576 100.704861,46.9453917 C106.181077,45.5855257 112.032061,45.5855257 118.257812,46.9453917 C114.922924,50.4560547 109.509729,56.0933805 102.018229,63.8573691 C90.780979,75.503352 81.4043459,80.5341627 74.7517361,86.1233108 C70.316663,89.8494096 66.436744,93.8739556 63.1119792,98.1969489 C55.6136466,89.2851169 49.3040401,83.3095574 44.1831597,80.2702703 C14.9809028,62.9384766 6.51388889,56.1055743 3.27690972,46.9453917 C-1.05077572,34.6986681 -1.05077572,24.6306254 3.27690972,16.7412637 Z" id="Path-2" fill="#40B70A"></path>
                <path d="M19.4296875,23.5201647 C17.8633065,23.1629248 15.9573458,22.2672585 13.7118053,20.8331658 C11.4662649,19.3990731 9.83403118,18.0351058 8.81510417,16.7412637 C16.4603585,5.89862211 25.5726269,0.477301297 36.1519093,0.477301297 C46.7311917,0.477301297 55.7508678,4.79827371 63.2109375,13.4402185 C76.4343171,1.08844489 89.8220486,-2.47767103 103.374132,2.74187078 C116.926215,7.96141258 121.887442,20.8096496 118.257813,41.2865818 L107.434028,42.1784737 C108.777967,36.0595155 109.445846,31.7334289 109.437665,29.200214 C109.40619,19.4536506 105.361484,13.5063486 98.077425,11.9229571 C96.2726873,11.5306476 93.8544825,10.8133843 91.2624446,10.7942825 C88.8638438,10.7766062 86.3166501,11.4215873 83.9626736,11.9229571 C81.0470117,12.5439594 78.2027952,15.3657781 75.8689236,16.7412637 C72.4235765,18.7718062 68.3127547,23.6275653 63.5364583,31.308541 C59.3714405,24.7207585 55.9431997,20.3751082 53.2517361,18.2715899 C45.3701531,12.1117245 36.0097549,10.3463567 31.3984375,11.9229571 C24.4250579,14.3071421 20.4354745,18.172878 19.4296875,23.5201647 Z" id="Path" fill="#FB0001"></path>
                <path d="M5.26475694,27.9116871 C7.25355465,35.427627 9.08775604,40.5859093 10.7673611,43.386534 C14.9921338,50.4310487 21.2709002,54.781511 25.5442708,56.5027449 C32.3660301,59.2504223 45.0688657,71.4936128 63.6527778,93.2323163 C72.1706053,84.9461022 78.2236276,79.1877239 81.8118446,75.9571815 C83.8242233,74.1453974 85.1352056,71.7452294 86.9600694,70.1885821 C89.1627438,68.3096545 92.0951065,66.9903298 94.5418797,64.7987035 C97.8765491,61.8117699 103.388631,56.6779432 111.078125,49.3972234 C106.23577,51.5258577 101.266731,54.6721573 96.1710069,58.8361223 C88.5274209,65.0820697 86.9763613,61.6587048 84.8411458,63.7023332 C83.2263505,65.2478641 80.7823745,69.623092 77.5092176,76.8280169 L63.6527778,92.020772 C59.6535254,87.1418143 56.7660833,83.7266695 54.9904514,81.7753378 C51.0250965,77.4176087 47.8940039,72.7823728 43.0104167,68.1879223 C30.7647273,56.6672487 27.5104167,54.6762827 20.5407986,45.6127798 C15.8943866,39.5704445 10.8023727,33.6700802 5.26475694,27.9116871 Z" id="Path-3" fill="#74CF37" opacity="0.430222284"></path>
            </g>
            <text id="Здоровый-Выбор" font-family="RobotoCondensed-Bold, Roboto Condensed" font-size="48" font-style="condensed" font-weight="bold" line-spacing="54" fill="#1762CD">
                <tspan x="133" y="46">Здоровый Выбор</tspan>
            </text>
            <text id="АВТОНОМНАЯ-НЕКОММЕРЧ" font-family="LucidaGrande-Bold, Lucida Grande" font-size="14" font-weight="bold" line-spacing="12" fill="#000000">
                <tspan x="128" y="73">АВТОНОМНАЯ</tspan>
                <tspan x="248.415039" y="78.3652344" font-family="CorsivaHebrew-Bold, Corsiva Hebrew"> </tspan>
                <tspan x="237.498047" y="73">НЕКОММЕРЧЕСКАЯ</tspan>
                <tspan x="391.84668" y="78.3652344" font-family="CorsivaHebrew-Bold, Corsiva Hebrew"> </tspan>
                <tspan x="380.929688" y="73">ОРГАНИЗАЦИЯ</tspan>
                <tspan x="506.027344" y="78.3652344" font-family="CorsivaHebrew-Bold, Corsiva Hebrew"></tspan>
                <tspan x="169.295898" y="91.5">СОЦИАЛЬНОЙ</tspan>
                <tspan x="290.476562" y="96.8652344" font-family="CorsivaHebrew-Bold, Corsiva Hebrew"> </tspan>
                <tspan x="279.55957" y="91.5">ПОМОЩИ</tspan>
                <tspan x="365.822266" y="96.8652344" font-family="CorsivaHebrew-Bold, Corsiva Hebrew"> </tspan>
                <tspan x="354.905273" y="91.5">НАСЕЛЕНИЮ</tspan>
            </text>
        </g>
    </g>
</svg>